<svg viewBox="0 0 137 29" fill="none" xmlns="http://www.w3.org/2000/svg">
<path d="M17.2673 6.44825C17.2673 7.44657 17.1606 8.62544 16.2446 8.62544C15.4351 8.62544 15.1723 7.71208 14.5536 6.76231C13.636 5.35587 12.0877 2.83125 9.04061 2.83125C5.99354 2.83125 4.44672 5.00995 4.44672 7.10217C4.44972 14.0403 18.3035 10.7647 18.3065 20.182C18.3065 24.0781 15.1438 28.962 8.3468 28.9635C5.07296 28.9635 1.79911 27.859 0.77491 25.9473C0.334893 25.1417 0.154682 24.2632 0.108127 23.4348C0.0615722 22.6064 0 21.9798 0 21.2941C0 20.537 0.440016 20.188 0.916075 20.188C1.86819 20.188 2.02288 21.3305 3.41651 23.2057C4.55935 24.732 6.42905 26.8243 9.40554 26.8227C13.1554 26.8227 14.9516 24.1874 14.9516 21.7826C14.9606 14.1587 1.1068 17.7833 1.1038 8.66792C1.1038 4.55479 4.55335 0.849784 10.1354 0.848267C12.7064 0.848267 15.2069 1.60383 16.2671 2.82973C17.006 3.67178 17.2553 5.23449 17.2568 6.44977" fill="black"/>
<path d="M37.9372 21.8219C37.9372 23.8064 38.0454 25.2614 38.4869 25.9821C39.1176 26.9804 40.2845 27.1245 40.2845 27.8088C40.2845 28.3383 39.8084 28.531 39.2498 28.531H33.0715C32.5234 28.534 32.0353 28.3413 32.0353 27.8118C32.0353 27.0547 33.2848 27.0062 33.8674 25.8273C34.2369 25.1051 34.3435 23.723 34.342 21.8219V15.8684C34.339 12.5139 32.648 11.0953 30.481 11.0953C29.3742 11.0953 28.2073 11.5171 27.3153 12.4319C25.9231 13.8748 25.5897 15.9443 25.5927 21.8128C25.5927 23.7609 25.7009 25.1673 26.1063 25.8895C26.7251 26.9956 27.9039 27.1033 27.9039 27.8012C27.9039 28.3307 27.4639 28.5234 26.9158 28.5234H20.8216C20.2735 28.5264 19.8335 28.3337 19.8335 27.8042C19.8335 26.9986 21.155 26.9622 21.7137 25.7469C22.0471 24.9898 22.1537 23.6896 22.1522 21.8143L22.1462 6.18108C22.1462 4.95518 22.1101 4.2694 21.7768 3.77631C21.1926 2.86296 19.6458 3.05564 19.6458 2.2136C19.6458 1.79333 19.8245 1.52782 20.6685 1.33514C22.026 1.03473 23.1328 0.649362 24.085 0.191167C24.3598 0.0728256 24.5866 0 24.7998 0C25.2759 0 25.6093 0.336819 25.6093 1.06963L25.6123 11.5201C25.6123 11.64 25.6483 11.7128 25.7189 11.7128C25.7895 11.7128 25.8255 11.64 25.8976 11.5201C27.0404 9.76319 29.0978 8.20047 31.8476 8.19895C33.9425 8.19895 35.6696 9.11231 36.6577 10.5658C37.4672 11.7082 37.9087 13.0783 37.9087 15.7607V21.8219H37.9342H37.9372Z" fill="black"/>
<path d="M59.9943 18.4476C59.9958 24.172 56.1407 28.936 50.6653 28.9375C45.1899 28.939 41.2958 24.9366 41.2943 18.7191C41.2928 12.9583 45.1839 8.1837 50.7779 8.18066C56.372 8.17915 60.0048 12.6746 60.0063 18.4354M50.2658 10.0802C47.028 10.0802 45.0532 13.0524 45.0547 17.2975C45.0562 22.5652 47.45 26.953 51.0453 26.9515C54.6405 26.9515 56.2579 23.2814 56.2564 19.5536C56.2564 15.1643 54.3837 10.0893 50.2658 10.0908" fill="black"/>
<path d="M80.6341 18.4402C80.6356 24.1646 76.7806 28.9286 71.3051 28.9302C65.8297 28.9317 61.9356 24.9293 61.9341 18.7118C61.9326 12.951 65.8237 8.17637 71.4178 8.17334C77.0118 8.17182 80.6446 12.6673 80.6461 18.4281M70.9057 10.0744C67.6679 10.0744 65.6931 13.0466 65.6946 17.2917C65.6961 22.5594 68.0899 26.9472 71.6851 26.9457C75.2803 26.9457 76.8977 23.2756 76.8962 19.5478C76.8962 15.1585 75.0235 10.0835 70.9057 10.085" fill="black"/>
<path d="M97.9871 10.5462C97.9871 11.496 97.7258 12.4579 96.7737 12.4594C96.0003 12.4594 95.7014 11.7023 94.6787 11.7023C92.7625 11.7023 91.0009 14.2527 89.7169 16.5498C88.134 19.4127 86.9927 22.5033 86.3755 25.5938L85.8994 27.9637C85.8288 28.3126 85.6381 28.4568 85.2687 28.5417L82.9124 28.9635C82.6856 28.9999 82.6511 28.9999 82.579 28.9999C82.4364 28.9999 82.2817 28.8801 82.2817 28.651C82.2817 28.6146 82.3177 28.387 82.3523 28.2307L84.9548 14.9173C85.1681 13.7748 85.3227 12.9692 85.3227 12.3562C85.3227 11.7069 85.0599 11.3215 84.5493 11.1303C83.8465 10.8663 83.0371 10.7101 83.0371 10.0243C83.0371 9.56762 83.4065 9.30211 84.3226 9.18225C85.6441 8.98957 86.8575 8.72406 88.0725 8.33869C88.3338 8.26586 88.5485 8.18242 88.7393 8.18242C89.2514 8.18242 89.5487 8.44641 89.5487 8.90309C89.5487 8.9395 89.5487 8.97591 89.5127 9.16708L88.3713 14.9643C88.3353 15.157 88.3353 15.1934 88.3353 15.1934C88.3353 15.2662 88.4074 15.3133 88.4419 15.3133C88.4764 15.3133 88.514 15.3133 88.5485 15.2404C90.7847 10.971 93.8077 8.17938 95.9732 8.17938C97.1161 8.17938 97.9616 8.82874 97.9616 10.5477" fill="black"/>
<path d="M114.913 8.97576C114.913 9.5523 114.212 12.8719 113.298 17.3704C112.56 20.9541 111.907 24.0097 111.907 25.1157C111.907 25.7651 112.086 26.1505 112.61 26.1505C113.491 26.1505 114.157 24.9352 114.847 24.9352C115.251 24.9352 115.43 25.2356 115.432 25.5481C115.432 25.7408 115.361 26.0048 115.17 26.2703C114.218 27.7253 112.493 28.9406 110.838 28.9421C109.291 28.9421 108.337 27.9924 108.337 25.9244C108.337 24.5893 108.705 23.0266 108.966 21.6186C109.003 21.4259 109.003 21.3546 109.003 21.3546C109.003 21.2818 108.966 21.2818 108.93 21.2818C108.894 21.2818 108.858 21.3182 108.824 21.4016C107.134 24.6484 103.97 28.9558 100.268 28.9573C97.7678 28.9573 96.3396 26.7816 96.3381 23.4635C96.3381 20.5657 97.3233 16.9335 98.9422 14.0827C101.108 10.2699 104.119 8.20047 107.13 8.19896C109.558 8.19896 111.141 9.41272 112.129 9.4112C113.117 9.4112 113.485 8.19592 114.224 8.19592C114.772 8.19592 114.927 8.61619 114.927 9.00156M100.157 23.0038C100.157 24.3389 100.456 26.1308 101.92 26.1292C103.206 26.1292 104.859 24.6014 106.954 21.4729C109.262 17.997 110.665 13.9552 110.665 12.6201C110.665 11.0574 107.903 10.0241 106.736 10.0241C105.784 10.0241 104.939 10.4095 104.201 11.1317C101.405 14.0311 100.157 20.3684 100.159 23.0023" fill="black"/>
<path d="M137 25.5648C137 26.0215 136.596 26.6708 135.715 27.478C134.798 28.32 133.549 28.9345 132.442 28.9345C131.157 28.9345 129.763 28.0576 129.763 25.8091C129.763 23.0189 131.855 16.3797 131.854 13.409C131.854 12.6868 131.781 12.1103 131.448 11.69C131.233 11.3896 130.781 11.1135 130.199 11.1135C128.698 11.1135 126.711 12.6413 124.689 16.4191C122.999 19.5825 122.012 22.409 121.311 25.4996L120.801 27.9407C120.73 28.2897 120.539 28.4338 120.17 28.5188L117.814 28.9406C117.587 28.977 117.552 28.977 117.516 28.977C117.289 28.977 117.183 28.8207 117.183 28.6402C117.183 28.6038 117.183 28.5673 117.219 28.3762L121.473 6.77579C121.699 5.63334 121.841 4.79129 121.841 4.17834C121.841 2.42294 119.568 3.03741 119.568 1.92985C119.568 1.40035 119.937 1.12422 120.853 1.01498C122.175 0.858709 123.424 0.556786 124.71 0.135004C124.936 0.0621783 125.114 0.0272827 125.292 0.0272827C125.768 0.0272827 126.066 0.254863 126.066 0.747953C126.066 0.784366 126.066 0.820779 126.03 1.01195L123.308 14.9747C123.272 15.1674 123.272 15.2038 123.272 15.2038C123.272 15.2403 123.272 15.3601 123.379 15.3601C123.451 15.3601 123.486 15.2403 123.558 15.131C125.866 10.8965 128.698 8.18982 131.637 8.18982C134.244 8.18982 135.459 10.0165 135.459 12.5776C135.459 16.2811 133.439 22.8839 133.439 25.1688C133.439 25.8182 133.618 26.2036 134.142 26.2036C135.024 26.2036 135.653 24.9761 136.416 24.9761C136.749 24.9761 136.964 25.2401 136.964 25.5891" fill="black"/>
</svg>
